HIERARCHY
ROOT Hips
{
     OFFSET 1.88212 96.90440 -13.34250
     CHANNELS 6 Xposition Yposition Zposition Zrotation Xrotation Yrotation
     JOINT Spine
     {
          OFFSET 0.00000 11.89050 0.00000
          CHANNELS 3 Zrotation Xrotation Yrotation
          JOINT Spine1
          {
               OFFSET -0.00000 25.65740 0.12766
               CHANNELS 3 Zrotation Xrotation Yrotation
               JOINT HEad
               {
                    OFFSET 0.00000 8.73416 0.01134
                    CHANNELS 3 Zrotation Xrotation Yrotation
                    End Site
                    {
                         OFFSET -0.29000 12.77420 2.51395
                    }
               }
               JOINT LeftShoulder1
               {
                    OFFSET 8.99000 -0.36225 -0.22000
                    CHANNELS 3 Zrotation Xrotation Yrotation
                    JOINT LeftArm
                    {
                         OFFSET 10.28270 -0.00338 0.32212
                         CHANNELS 3 Zrotation Xrotation Yrotation
                         JOINT LeftForeArm
                         {
                              OFFSET 32.76690 0.09914 -1.42434
                              CHANNELS 3 Zrotation Xrotation Yrotation
                              JOINT LeftHand
                              {
                                   OFFSET 27.56430 0.08536 1.02216
                                   CHANNELS 3 Zrotation Xrotation Yrotation
                                   End Site
                                   {
                                        OFFSET 16.74430 -0.60000 1.50291
                                   }
                              }
                         }
                    }
               }
               JOINT RightShoulder
               {
                    OFFSET -8.99000 -0.36225 -0.22000
                    CHANNELS 3 Zrotation Xrotation Yrotation
                    JOINT RightArm
                    {
                         OFFSET -10.28270 -0.00338 0.32212
                         CHANNELS 3 Zrotation Xrotation Yrotation
                         JOINT RightForeArm
                         {
                              OFFSET -32.89710 0.09914 -1.42434
                              CHANNELS 3 Zrotation Xrotation Yrotation
                              JOINT RightHand
                              {
                                   OFFSET -27.49210 0.08536 1.02216
                                   CHANNELS 3 Zrotation Xrotation Yrotation
                                   End Site
                                   {
                                        OFFSET -16.63120 -0.60000 1.50291
                                   }
                              }
                         }
                    }
               }
          }
     }
     JOINT LeftUpLeg
     {
          OFFSET 8.94580 -8.66707 0.10165
          CHANNELS 3 Zrotation Xrotation Yrotation
          JOINT LeftLeg
          {
               OFFSET 0.00000 -44.42270 1.37270
               CHANNELS 3 Zrotation Xrotation Yrotation
               JOINT LeftFoot
               {
                    OFFSET -0.25355 -42.09240 -1.46059
                    CHANNELS 3 Zrotation Xrotation Yrotation
                    JOINT LeftToes
                    {
                         OFFSET -0.04000 -4.41509 8.49910
                         CHANNELS 3 Zrotation Xrotation Yrotation
                         End Site
                         {
                              OFFSET 0.08000 -0.04745 9.77979
                         }
                    }
               }
          }
     }
     JOINT RightUpLeg
     {
          OFFSET -8.94580 -8.66707 0.10165
          CHANNELS 3 Zrotation Xrotation Yrotation
          JOINT RightLeg
          {
               OFFSET 0.00000 -44.42270 1.37270
               CHANNELS 3 Zrotation Xrotation Yrotation
               JOINT RightFoot
               {
                    OFFSET 0.25355 -42.09240 -1.46059
                    CHANNELS 3 Zrotation Xrotation Yrotation
                    JOINT RightToes
                    {
                         OFFSET 0.04000 -4.41509 8.49910
                         CHANNELS 3 Zrotation Xrotation Yrotation
                         End Site
                         {
                              OFFSET -0.08000 -0.13745 9.77979
                         }
                    }
               }
          }
     }
}
MOTION
Frames: 8
Frame Time: 0.01667
15.54718 56.51743 -119.35957 4.21188 -9.29364 19.57156 -11.85416 43.60794 5.27869 0.00118 0.01179 -0.00330 3.22148 -7.19215 -9.37379 0.83642 6.97453 -3.55259 -79.11012 -12.22565 -109.60300 3.15859 39.13149 -98.65368 38.25994 -1.66659 -16.14105 26.65748 12.09086 2.00870 46.48772 -21.15155 68.34577 0.10847 30.61836 127.26189 -40.83488 10.91952 -9.50612 27.32094 -64.43922 18.40969 123.48017 82.98882 -130.02277 67.53880 -0.00880 -0.01337 -86.91356 -1.70024 -1.71271 -28.98505 -32.62582 -16.47104 -112.18013 65.30672 86.87184 -8.30543 -0.03609 0.20621 -16.09430 -54.04486 -5.66482 
14.19831 54.79440 -119.96214 4.35251 -10.22616 20.96501 -9.01706 44.91029 3.10917 0.00103 0.01587 -0.00152 2.03661 -8.14205 -9.32914 -0.24804 7.66295 -3.25959 -81.03600 -16.66959 -109.98141 0.18957 39.74207 -99.78368 38.76703 -1.50547 -16.10469 25.01049 12.41913 2.81596 47.07321 -22.05469 67.97570 0.72783 32.19260 126.57207 -41.01283 10.96923 -9.18597 27.57039 -66.17796 17.93761 126.97467 81.74151 -135.00873 68.48590 -0.00911 -0.01132 -87.59866 -1.31832 -0.55703 -28.98335 -33.03799 -10.82817 -115.14657 68.74104 94.29575 -9.10608 -0.06965 0.05146 -7.85256 -45.48975 -4.23678 
12.79830 53.12206 -120.48677 4.58303 -10.92371 22.04148 -6.35401 45.58801 1.10623 -0.00111 0.01961 -0.00038 0.79380 -8.81919 -9.15894 -1.41557 8.49130 -3.05626 -82.39509 -19.21719 -110.36031 -1.10736 40.42061 -100.48248 39.25599 -1.02607 -16.19482 23.29505 12.92941 3.56443 47.53131 -22.78529 67.59529 1.28314 33.51493 125.87873 -40.98713 11.03215 -8.91136 28.28095 -67.77058 18.08548 127.98702 80.63371 -137.44943 68.99091 -0.00646 -0.00780 -87.90015 -0.86086 0.59886 -28.61997 -33.50274 -4.16381 -119.80630 72.45745 104.25700 -6.43443 -0.19741 -0.07785 -14.36269 -43.20348 -10.91668 
10.96493 51.24812 -120.73221 4.92988 -11.43012 22.86166 -3.98645 45.77634 -0.64550 0.00059 0.02234 0.00088 -0.47278 -10.17943 -7.57959 -2.71401 9.30866 -2.97288 -85.60547 -23.86667 -110.19289 -3.90565 42.10877 -102.46283 40.93045 17.91170 -14.14643 21.44659 13.49156 4.40069 47.87028 -23.27560 67.08324 1.60501 34.55076 125.29221 -40.66114 11.21982 -8.82468 31.06392 -68.53211 19.52992 127.23075 80.39798 -138.87338 68.85196 -0.00160 -0.00331 -87.63605 -0.47803 1.80976 -28.38475 -34.15429 3.01685 -135.12274 75.99514 124.11792 2.66037 -0.44670 -0.07046 1.04696 -40.45222 -5.13572 
8.94995 49.48345 -120.74435 5.36619 -11.78647 23.45478 -1.99566 45.59116 -2.06401 -0.00211 0.02420 0.00096 -1.77780 -12.08215 -4.72874 -4.03941 10.17118 -2.91525 -87.71078 -26.39665 -110.00208 -4.58798 43.37140 -103.86077 42.31614 8.01638 -15.63944 19.62452 14.10798 5.13518 48.08050 -23.45833 66.61757 1.72632 35.32402 124.80392 -40.41602 11.46335 -8.86225 35.39275 -68.61189 21.79496 125.72160 80.88781 -140.05382 68.06530 0.00235 0.00044 -87.12780 -0.13529 2.85548 -27.64224 -35.46819 10.04106 -159.25812 76.63618 151.28642 7.43985 -0.26939 0.01058 -10.16008 -41.97725 -10.74564 
6.69754 47.82202 -120.49561 5.87572 -12.03337 23.84984 -0.42443 45.12997 -3.09323 -0.00430 0.02521 0.00121 -2.98295 -13.58276 -2.07712 -5.44179 11.06810 -2.64008 -89.05162 -27.58558 -109.48583 -0.39697 42.03286 -103.81879 41.06828 8.71096 -15.93717 17.92268 14.75222 5.74877 48.15682 -23.33135 66.25071 1.66685 35.86289 124.33752 -40.04343 11.74110 -9.04019 40.49843 -68.10464 24.18776 123.74120 82.03777 -141.04147 66.66219 0.00469 0.00294 -86.17167 0.11507 3.82337 -26.53590 -37.24538 16.79863 -179.81610 74.19529 174.04924 13.60707 -0.24316 0.05986 10.70588 -43.82686 1.91666 
3.95183 46.16946 -119.89793 6.47754 -12.20175 24.09253 0.78350 44.46194 -3.76096 0.00143 0.02456 0.00122 -4.56879 -15.32532 1.67016 -6.59633 11.87201 -2.28626 -93.34847 -30.92731 -108.60011 0.39625 43.09997 -106.67805 41.45977 0.43844 -17.61932 16.54399 15.33585 5.86848 46.72197 -19.52630 68.07639 0.68131 33.84994 121.20261 -39.52964 12.10035 -9.27629 45.21358 -67.15321 25.67858 110.16443 82.74353 -130.20393 62.97723 0.01750 0.00548 -84.47144 0.54285 4.43117 -26.05325 -38.97787 22.00505 -190.40141 70.60211 186.79352 19.32002 -0.19681 0.08496 -0.00246 -46.31170 -1.40000 
1.03124 44.63332 -119.10916 7.13708 -12.31781 24.21153 1.65666 43.64822 -4.06969 -0.00131 0.02642 0.00197 -6.01576 -16.64808 5.06232 -7.56584 12.71735 -1.93494 -96.34368 -32.68765 -107.65166 1.33050 43.94014 -109.01384 41.28684 2.31721 -17.13204 15.35607 15.95737 5.88911 45.44201 -17.02985 68.88147 -0.08754 32.55333 119.65379 -39.06982 12.50644 -9.79640 48.56997 -65.92283 25.43594 88.00614 82.79675 -110.06834 57.80791 0.02961 0.00336 -82.41723 1.16415 4.75060 -25.87875 -40.81150 25.70974 -194.98781 66.80162 193.24925 23.12517 -0.16069 0.07157 1.28883 -47.20826 1.81090 
